PathFileType	4	(X/Y/Z)	FAIDC1_INITIAL_WALK01.trc	
DataRate	CameraRate	NumFrames	NumMarkers	Units	OrigDataRate	OrigDataStartFrame	OrigNumFrames
100	100	4	49	mm	100	286	113
Frame#	Time	RSH			LSH			C7			LELB			LWR			RELB			RWR			RASI			LASI			SACR			P1			P2			P3			LTHLP			LTHLD			LTHAP			LTHAD			LLEPI			LPAT			LMEPI			LTIAP			LTIAD			LTILAT			LLMAL			LMMAL			LHEEL			LMFS			LMFL			LP5MT			LP1MT			LTOE			RTHLP			RTHLD			RTHAP			RTHAD			RLEPI			RPAT			RMEPI			RTIAP			RTIAD			RTILAT			RLMAL			RMMAL			RHEEL			RMFS			RMFL			RP5MT			RP1MT			RTOE			
		X1	Y1	Z1	X2	Y2	Z2	X3	Y3	Z3	X4	Y4	Z4	X5	Y5	Z5	X6	Y6	Z6	X7	Y7	Z7	X8	Y8	Z8	X9	Y9	Z9	X10	Y10	Z10	X11	Y11	Z11	X12	Y12	Z12	X13	Y13	Z13	X14	Y14	Z14	X15	Y15	Z15	X16	Y16	Z16	X17	Y17	Z17	X18	Y18	Z18	X19	Y19	Z19	X20	Y20	Z20	X21	Y21	Z21	X22	Y22	Z22	X23	Y23	Z23	X24	Y24	Z24	X25	Y25	Z25	X26	Y26	Z26	X27	Y27	Z27	X28	Y28	Z28	X29	Y29	Z29	X30	Y30	Z30	X31	Y31	Z31	X32	Y32	Z32	X33	Y33	Z33	X34	Y34	Z34	X35	Y35	Z35	X36	Y36	Z36	X37	Y37	Z37	X38	Y38	Z38	X39	Y39	Z39	X40	Y40	Z40	X41	Y41	Z41	X42	Y42	Z42	X43	Y43	Z43	X44	Y44	Z44	X45	Y45	Z45	X46	Y46	Z46	X47	Y47	Z47	X48	Y48	Z48	X49	Y49	Z49	

43	0.42000	634.44989	1510.95349	178.66098	645.24866	1523.20703	-172.10434	559.58447	1549.30310	9.89973	633.68848	1173.11194	-298.30463	831.29346	1020.85730	-250.02670	520.74402	1191.44617	300.14838	565.96509	939.21729	314.24063	659.31641	1034.65051	141.64087	666.42780	1042.14124	-133.74670	489.99237	1112.90747	-0.52104	486.22067	1094.00391	-51.66324	482.55026	1089.80444	50.96913	466.33972	1027.39001	-2.69890	570.70508	754.35065	-173.77539	546.82275	654.30029	-155.11334	665.48401	743.93164	-106.40640	631.62262	646.43048	-91.76682	507.88229	520.92938	-132.89438	579.81714	514.67950	-73.34521	507.89398	533.41180	-11.01901	509.62332	383.13849	-51.88779	470.71255	260.55582	-38.56790	447.61777	328.93643	-124.72507	390.55170	114.31362	-79.42557	418.14514	137.37694	10.94336	321.59521	111.33336	-41.09918	479.87680	96.84005	-12.07593	443.58972	75.41956	-84.39108	505.47906	48.64263	-101.09729	540.49939	48.32988	14.33424	596.21118	43.59561	-11.32925	705.35382	769.16461	193.29770	752.15778	664.76276	176.35129	786.83295	808.01385	128.27838	831.00470	707.91492	117.98241	778.17468	564.88513	161.56949	869.79999	584.26294	113.54697	795.11371	563.62109	36.93753	823.57489	431.17743	93.76588	789.62714	285.27539	84.99054	726.97943	372.90286	166.76082	713.49469	133.74449	122.97065	751.58325	151.95016	37.50836	652.22736	127.58599	69.92686	819.75024	125.04226	93.16400	779.80127	97.58451	141.05475	831.83203	69.81705	158.69492	887.02856	76.19816	64.18073	928.44073	69.58572	97.51469	
44	0.43000	647.47919	1509.02197	179.13315	658.26349	1521.22363	-171.68024	572.70093	1547.38916	10.31766	647.93805	1171.01819	-297.48120	848.19891	1023.02045	-247.51270	531.61487	1190.41125	300.69901	575.64368	937.91852	315.72189	672.75751	1032.55896	142.01956	678.81110	1040.14563	-133.48465	503.02963	1111.29895	0.25084	499.01050	1092.38171	-50.83801	495.79385	1088.16687	51.80011	479.26239	1025.79712	-1.80833	579.48364	753.30444	-173.94174	553.89172	653.54584	-155.33261	672.70081	741.48267	-105.72052	638.24670	644.53424	-91.41891	512.19006	520.59094	-132.87604	584.27997	513.32965	-73.42984	512.64166	533.32599	-11.07678	512.86536	383.10025	-52.08307	472.75909	260.92410	-38.72351	450.15170	329.50925	-124.92130	391.13574	115.29173	-79.44077	419.01434	138.24252	10.87390	322.14288	113.06716	-41.08444	480.35800	97.11747	-12.20901	443.80923	75.85347	-84.48053	505.50769	48.66734	-101.18011	540.52911	48.43667	14.33708	596.25464	43.44441	-11.26898	716.37115	766.39099	193.35500	762.06299	661.27704	175.56113	798.37976	805.06952	128.66904	842.16241	704.80286	118.26003	788.39087	561.13208	161.31641	879.66602	582.28717	113.54736	806.01361	559.89832	36.50111	841.77948	429.74780	94.38947	818.86804	281.59937	85.89394	748.72571	365.32254	166.20624	753.19910	125.15385	123.26575	790.70233	146.01875	38.12799	692.99817	115.29133	69.66208	860.20374	123.38103	94.35887	821.73322	92.84200	141.59483	875.07983	68.28343	159.59659	930.81714	79.01569	65.78001	972.16602	74.77043	99.47313	
45	0.44000	660.62909	1506.96143	179.66182	671.33087	1519.17041	-171.23190	585.87689	1545.38293	10.80803	662.18298	1168.89661	-296.60541	864.70007	1024.76697	-245.02014	542.70935	1189.20496	301.25525	585.79675	936.61920	317.18701	686.42896	1030.34912	142.41034	691.66064	1038.29578	-132.88104	516.16516	1109.57715	1.16339	511.85974	1090.71301	-49.95239	509.18713	1086.48572	52.72459	492.10037	1024.10498	-0.69916	588.36389	752.08752	-174.02548	561.19470	652.72211	-155.47443	681.64673	739.09119	-105.47714	645.22534	642.70557	-91.14670	517.60651	520.72815	-132.99951	589.32654	511.79279	-73.53690	517.92078	533.10474	-11.06357	516.46484	382.89963	-52.30991	475.09644	261.15805	-38.87961	453.02029	330.12201	-125.01520	391.72098	116.45827	-79.47202	420.03079	139.01672	10.81882	322.86938	114.84891	-41.01132	480.81400	97.43544	-12.33740	444.08276	76.38335	-84.54660	505.40509	48.53184	-101.13507	540.55261	48.42825	14.26680	596.30249	43.28614	-11.18460	726.69922	762.85974	193.26329	770.85089	656.96948	174.66736	809.64520	801.30719	129.36545	853.01062	700.80139	119.22559	797.73828	556.56903	161.04684	888.78595	579.26953	113.19469	815.73883	555.12579	36.33139	859.26074	428.35730	94.77597	847.18524	279.02084	86.51253	770.32123	357.79977	165.78835	792.88275	117.88622	123.31308	829.26031	141.75717	38.66571	733.76074	104.84578	69.50594	900.01202	123.33863	95.47580	863.39960	90.11507	142.28238	917.88763	68.73702	160.36728	973.54205	83.60911	67.11479	1014.74011	81.76376	101.08174	
46	0.45000	673.86127	1504.89990	180.21097	684.45221	1517.04041	-170.70865	599.12598	1543.26160	11.37289	676.31006	1166.63867	-295.55792	880.90900	1026.11023	-242.62943	554.06506	1187.81213	301.76785	596.17694	935.10187	318.66663	700.26697	1028.01196	142.82300	703.85632	1035.79309	-132.85947	529.41473	1107.75122	2.16530	524.84680	1088.89001	-48.92401	522.76483	1084.65356	53.71716	505.67114	1022.29749	0.29211	597.41516	750.88568	-174.07047	568.83386	651.87555	-155.56467	689.64471	736.83820	-105.10437	652.55865	640.90100	-91.02994	523.15155	520.34863	-132.86740	594.90796	510.33270	-73.57867	523.90320	532.79608	-11.00211	520.44226	382.62900	-52.32925	477.49408	261.47607	-38.73758	456.27478	330.72720	-125.07358	392.49057	117.72980	-79.40836	421.20749	139.93228	10.81558	323.66766	116.82889	-40.89679	481.42203	97.78409	-12.43466	444.29211	77.10300	-84.46793	505.43472	48.51498	-101.00134	540.56653	48.32388	14.14401	596.35431	43.10379	-11.06808	736.48969	758.64954	193.21475	779.13763	652.07715	173.93683	820.59839	796.46649	130.21170	863.17334	695.61938	120.04082	806.55237	551.29285	160.77469	897.23895	575.28711	112.66476	825.14575	550.36487	35.55772	876.13354	426.99088	94.96091	874.57263	277.29269	86.90414	791.93427	350.56400	165.39368	831.52063	112.91466	123.71693	866.72327	139.02510	39.04544	773.78394	95.89837	69.49208	938.45294	125.09292	95.98639	903.82715	89.49602	142.75717	959.64063	71.47148	160.89104	1014.58386	90.40575	67.89191	1055.56494	90.98588	102.04355	
